<svg xmlns="http://www.w3.org/2000/svg" xmlns:xlink="http://www.w3.org/1999/xlink" version="1.1" x="0px" y="0px" width="160px" height="160" viewBox="0 0 160 131.36" enable-background="new 0 0 160 131.36" xml:space="preserve"><style>.style0{fill:	#FFFFFF;}.style1{stroke:	#000000;stroke-miterlimit:	10;}</style><path d="M160 60.67v10h-23.89c-0.301 3.43-0.91 6.77-1.801 10C127.741 104.5 105.9 122 80 122 c-22.92 0-42.641-13.69-51.431-33.33h24.171c0.02 0 0 0.1 0.1 0.07c0.25 0.3 0.5 0.6 0.8 0.9 c0.04 0.1 0.1 0.1 0.1 0.15c0.311 0.3 0.6 0.7 0.9 0.99c0.22 0.2 0.5 0.5 0.7 0.67c0.23 0.2 0.5 0.4 0.7 0.6 c0.12 0.1 0.2 0.2 0.4 0.32c0.109 0.1 0.2 0.2 0.3 0.31c0.48 0.4 1 0.8 1.5 1.2c0.25 0.2 0.5 0.4 0.8 0.6 c0.319 0.2 0.6 0.5 1 0.69c0.25 0.2 0.5 0.3 0.8 0.5s0.51 0.3 0.8 0.47c0.511 0.3 1 0.6 1.6 0.9 c0.561 0.3 1.1 0.6 1.7 0.87c0.289 0.1 0.6 0.3 0.9 0.4c0.301 0.1 0.6 0.3 0.9 0.38c0.6 0.2 1.2 0.5 1.8 0.7 c0.21 0.1 0.4 0.1 0.6 0.21c0.061 0 0.1 0.1 0.2 0.07c0.05 0 0.1 0 0.2 0.05c0.029 0 0.1 0 0.1 0 c0.26 0.1 0.5 0.2 0.8 0.24c0.31 0.1 0.6 0.2 0.9 0.26c0.69 0.2 1.4 0.3 2.1 0.48c0.24 0 0.5 0.1 0.7 0.1 c0.26 0.1 0.5 0.1 0.8 0.13c0.34 0.1 0.7 0.1 1 0.14c0.2 0 0.4 0 0.6 0.06c0.28 0 0.6 0.1 0.9 0.1 c0.3 0 0.6 0 0.9 0.06c0.04 0 0.1 0 0.1 0.01c0.06 0 0.1 0 0.2 0.01c0.13 0 0.3 0 0.4 0 c0.39 0 0.8 0 1.2 0.02c14.34 0 26.7-8.46 32.37-20.66c1.45-3.11 2.46-6.47 2.95-10H0v-10h23.89c0.3-3.43 0.91-6.77 1.8-10 C32.25 26.8 54.1 9.3 80 9.33c22.92 0 42.6 13.7 51.4 33.34h-24.17C100.72 34.9 90.9 30 80 30 c-14.34 0-26.71 8.46-32.37 20.67c-1.45 3.11-2.46 6.47-2.95 10H160z" class="style0"/><path d="M160 50.67v10H44.68c0.49-3.53 1.5-6.89 2.95-10C53.291 38.5 65.7 30 80 30 c10.93 0 20.7 4.9 27.3 12.67h24.17C122.64 23 102.9 9.3 80 9.33c-25.92 0-47.75 17.5-54.311 41.3 c-0.89 3.23-1.5 6.57-1.8 10H0v-10h16.05C22.84 21.6 48.9 0 80 0s57.16 21.6 64 50.67H160z" class="style1"/><path d="M0 80.69v-10h115.321c-0.49 3.529-1.5 6.89-2.95 10 C106.71 92.9 94.3 101.4 80 101.36c-10.93 0-20.72-4.92-27.26-12.67H28.57c8.79 19.6 28.5 33.3 51.4 33.3 c25.92 0 47.75-17.5 54.31-41.34c0.891-3.23 1.5-6.57 1.8-10H160v10h-16.05c-6.79 29.04-32.84 50.67-63.95 50.7 S22.84 109.7 16.1 80.69H0z" class="style1"/></svg>